<svg version="1.1" xmlns="http://www.w3.org/2000/svg" xmlns:xlink="http://www.w3.org/1999/xlink" width="132.40035" height="133.77994"><defs><linearGradient x1="289.11597" y1="181.85141" x2="306.16667" y2="181.85141" gradientUnits="userSpaceOnUse" id="color-1"><stop offset="0" stop-color="#00d2ff"/><stop offset="1" stop-color="#00adff"/></linearGradient><radialGradient cx="272.23314" cy="167.10959" r="50.44118" gradientUnits="userSpaceOnUse" id="color-2"><stop offset="0" stop-color="#00ebff"/><stop offset="1" stop-color="#00adff"/></radialGradient><radialGradient cx="256.99659" cy="175.56611" r="37.87283" gradientUnits="userSpaceOnUse" id="color-3"><stop offset="0" stop-color="#e7e7e7"/><stop offset="1" stop-color="#b3b3b3"/></radialGradient><radialGradient cx="262.27306" cy="174.28113" r="27.3792" gradientTransform="translate(-278.17009,-247.03006) scale(1.30829,1.30829)" gradientUnits="userSpaceOnUse" id="color-4"><stop offset="0" stop-color="#00ebff"/><stop offset="1" stop-color="#00adff"/></radialGradient></defs><g transform="translate(-173.79983,-113.11003)"><g data-paper-data="{&quot;isPaintingLayer&quot;:true}" fill-rule="nonzero" stroke="none" stroke-linecap="butt" stroke-linejoin="miter" stroke-miterlimit="10" stroke-dasharray="" stroke-dashoffset="0" style="mix-blend-mode: normal"><path d="M297.01016,246.88997h-114.02246c-5.06329,0 -9.18787,-4.18523 -9.18787,-9.3303v-115.11934c0,-5.14294 4.12256,-9.3303 9.18787,-9.3303h114.02674c5.06531,0 9.18574,4.18736 9.18574,9.3303v115.11934c0,5.14508 -4.12256,9.3303 -9.19001,9.3303z" data-paper-data="{&quot;origPos&quot;:null}" fill="#ffffff" stroke-width="1"/><path d="M289.11597,189.39971v-15.0966h17.0507v15.0966z" data-paper-data="{&quot;origPos&quot;:null}" fill="url(#color-1)" stroke-width="0"/><path d="M240,130.39256c27.85789,0 50.44118,22.21001 50.44118,49.60744c0,27.39744 -22.58329,49.60744 -50.44118,49.60744c-27.85789,0 -50.44118,-22.21001 -50.44118,-49.60744c0,-27.39744 22.58329,-49.60744 50.44118,-49.60744z" data-paper-data="{&quot;origPos&quot;:null}" fill="url(#color-2)" stroke-width="0"/><path d="M240,142.75316c20.91659,0 37.87283,16.67598 37.87283,37.24684c0,20.57086 -16.95624,37.24684 -37.87283,37.24684c-20.91659,0 -37.87283,-16.67598 -37.87283,-37.24684c0,-20.57086 16.95624,-37.24684 37.87283,-37.24684z" data-paper-data="{&quot;origPos&quot;:null}" fill="url(#color-3)" stroke-width="0"/><text transform="translate(212.6208,188.81875) scale(0.76436,0.76436)" font-size="40" xml:space="preserve" data-paper-data="{&quot;origPos&quot;:null}" fill="url(#color-4)" fill-rule="nonzero" stroke="none" stroke-width="1" stroke-linecap="butt" stroke-linejoin="miter" stroke-miterlimit="10" stroke-dasharray="" stroke-dashoffset="0" font-family="Sans Serif" font-weight="normal" text-anchor="start" style="mix-blend-mode: normal"><tspan x="0" dy="0">Jibo</tspan></text></g></g></svg>